<svg width="512" height="512" viewBox="0 0 512 512" fill="none" xmlns="http://www.w3.org/2000/svg">
  <rect width="512" height="512" rx="48" fill="#F8F0DF"/>
  <circle cx="256" cy="256" r="180" fill="#D7E5D2"/>
  <path d="M144 301C144 227 204 167 278 167C352 167 412 227 412 301V350H144V301Z" fill="#6A87C8"/>
  <circle cx="278" cy="165" r="64" fill="#6A87C8"/>
  <path d="M232 133L204 96L194 145" fill="#6A87C8"/>
  <path d="M325 133L356 93L366 148" fill="#6A87C8"/>
  <circle cx="258" cy="166" r="11" fill="#2E2418"/>
  <circle cx="302" cy="166" r="11" fill="#2E2418"/>
  <path d="M268 190C277 199 290 199 299 190" stroke="#2E2418" stroke-width="8" stroke-linecap="round"/>
  <path d="M204 350L175 420" stroke="#2E2418" stroke-width="14" stroke-linecap="round"/>
  <path d="M351 350L380 420" stroke="#2E2418" stroke-width="14" stroke-linecap="round"/>
  <path d="M117 162C154 157 180 166 205 188" stroke="#A56B45" stroke-width="12" stroke-linecap="round"/>
  <path d="M92 215C146 207 183 220 214 250" stroke="#A56B45" stroke-width="12" stroke-linecap="round"/>
  <path d="M341 87C374 98 394 117 407 146" stroke="#A56B45" stroke-width="12" stroke-linecap="round" stroke-dasharray="10 16"/>
</svg>
