<svg width="512" height="512" viewBox="0 0 512 512" fill="none" xmlns="http://www.w3.org/2000/svg">
  <rect width="512" height="512" rx="48" fill="#F7EFDE"/>
  <circle cx="256" cy="256" r="180" fill="#E8D9AE"/>
  <ellipse cx="258" cy="309" rx="90" ry="118" fill="#F6F4EE"/>
  <path d="M255 183C292 183 322 213 322 250C322 287 292 317 255 317C218 317 188 287 188 250C188 213 218 183 255 183Z" fill="#F6F4EE"/>
  <path d="M284 215C302 175 338 148 389 148C369 187 347 214 318 231" fill="#2E2418"/>
  <circle cx="247" cy="242" r="10" fill="#2E2418"/>
  <path d="M189 251H255L202 278" fill="#D99A52"/>
  <path d="M230 360L210 421" stroke="#2E2418" stroke-width="12" stroke-linecap="round"/>
  <path d="M289 360L312 421" stroke="#2E2418" stroke-width="12" stroke-linecap="round"/>
  <path d="M236 309C236 333 244 352 262 363" stroke="#D99A52" stroke-width="10" stroke-linecap="round"/>
</svg>
