<svg width="512" height="512" viewBox="0 0 512 512" fill="none" xmlns="http://www.w3.org/2000/svg">
  <rect width="512" height="512" rx="48" fill="#F8F0DF"/>
  <circle cx="256" cy="256" r="180" fill="#F3DFC0"/>
  <path d="M80 363C166 345 250 340 432 360" stroke="#5A4630" stroke-width="16" stroke-linecap="round"/>
  <path d="M214 282C214 229 257 186 310 186C363 186 406 229 406 282V339H214V282Z" fill="#D27D42"/>
  <circle cx="309" cy="184" r="63" fill="#D27D42"/>
  <path d="M258 148L287 104L312 154" fill="#D27D42"/>
  <path d="M326 155L362 112L373 171" fill="#D27D42"/>
  <circle cx="291" cy="185" r="12" fill="#2E2418"/>
  <circle cx="337" cy="185" r="12" fill="#2E2418"/>
  <path d="M298 209C307 218 322 218 331 209" stroke="#2E2418" stroke-width="8" stroke-linecap="round"/>
  <path d="M233 338L214 398" stroke="#2E2418" stroke-width="14" stroke-linecap="round"/>
  <path d="M386 338L410 399" stroke="#2E2418" stroke-width="14" stroke-linecap="round"/>
  <path d="M207 281C176 287 150 311 139 346C182 337 203 327 214 303" fill="#F7F3EA"/>
  <path d="M398 257C432 270 450 292 458 327C420 322 399 311 387 288" fill="#D27D42"/>
</svg>
