<svg width="512" height="512" viewBox="0 0 512 512" fill="none" xmlns="http://www.w3.org/2000/svg">
  <rect width="512" height="512" rx="48" fill="#F7EFDE"/>
  <circle cx="256" cy="256" r="180" fill="#E2DFE8"/>
  <ellipse cx="256" cy="259" rx="38" ry="108" fill="#6E627A"/>
  <path d="M237 197C177 152 120 160 89 223C149 233 191 236 233 256" fill="#B7AFC3"/>
  <path d="M276 197C336 152 393 160 424 223C364 233 322 236 280 256" fill="#B7AFC3"/>
  <path d="M232 273C191 295 154 331 132 390C181 388 218 376 246 342" fill="#CDC7D6"/>
  <path d="M280 273C321 295 358 331 380 390C331 388 294 376 266 342" fill="#CDC7D6"/>
  <circle cx="244" cy="187" r="8" fill="#2E2418"/>
  <circle cx="268" cy="187" r="8" fill="#2E2418"/>
  <path d="M245 212C252 218 260 218 267 212" stroke="#2E2418" stroke-width="6" stroke-linecap="round"/>
  <circle cx="256" cy="137" r="24" fill="#F5EAA8" fill-opacity="0.8"/>
</svg>
