<svg width="1200" height="720" viewBox="0 0 1200 720" fill="none" xmlns="http://www.w3.org/2000/svg">
  <rect width="1200" height="720" rx="44" fill="#F7EED9"/>
  <circle cx="202" cy="157" r="112" fill="#E7D5AB"/>
  <circle cx="1026" cy="560" r="174" fill="#DCE7C5"/>
  <ellipse cx="600" cy="456" rx="387" ry="102" fill="#B18857"/>
  <rect x="535" y="438" width="130" height="194" rx="24" fill="#987048"/>
  <rect x="468" y="300" width="268" height="92" rx="18" fill="#FFF7E9" stroke="#CFB98E" stroke-width="10"/>
  <rect x="507" y="333" width="190" height="24" rx="12" fill="#D2E6D1"/>
  <circle cx="291" cy="318" r="58" fill="#FFF7E9"/>
  <path d="M250 365C250 320 286 284 331 284C376 284 412 320 412 365V508H250V365Z" fill="#E4C36C"/>
  <circle cx="291" cy="316" r="27" fill="#2E2418"/>
  <circle cx="548" cy="246" r="60" fill="#FFF7E9"/>
  <path d="M506 292C506 244 545 205 593 205C641 205 680 244 680 292V443H506V292Z" fill="#6EA87C"/>
  <path d="M518 224C518 193 543 168 574 168C605 168 630 193 630 224V246H518V224Z" fill="#2E2418"/>
  <circle cx="853" cy="321" r="58" fill="#FFF7E9"/>
  <path d="M812 368C812 323 848 287 893 287C938 287 974 323 974 368V508H812V368Z" fill="#D2E6D1"/>
  <circle cx="853" cy="319" r="27" fill="#2E2418"/>
  <path d="M356 258C406 238 459 238 505 260" stroke="#8A553A" stroke-width="10" stroke-linecap="round"/>
  <path d="M703 258C756 236 809 237 858 262" stroke="#8A553A" stroke-width="10" stroke-linecap="round"/>
</svg>
